<svg id="OBJECTS" xmlns="http://www.w3.org/2000/svg" viewBox="0 0 290 90"><defs><style>.cls-1,.cls-2{fill:#010101;}.cls-1{fill-rule:evenodd;}.cls-3,.cls-8{fill:none;}.cls-4{fill:#0baa4d;}.cls-5{fill:#178ece;}.cls-6{fill:#8cc540;}.cls-7{fill:#0aaa4e;}.cls-8{stroke:#fff;stroke-linecap:round;stroke-linejoin:round;stroke-width:0;}.cls-9{fill:#fff;}</style></defs><path class="cls-1" d="M110.42,63.76a1.08,1.08,0,0,0,.74.25,1,1,0,0,0,.67-.21.44.44,0,0,0,.13-.18.39.39,0,0,1-.24-.09l-.11-.08,0-.11a.7.7,0,0,0-.8-1,1.58,1.58,0,0,0-.62.26,2.57,2.57,0,0,1-.53.25l-.35.09V60.53c0-.25,0-.52,0-.77a6.72,6.72,0,0,0,0-1.29c0-.29-.31-.44-.76-.44a2.49,2.49,0,0,0-.93.2l0,.11h-1l.58-.38a1.61,1.61,0,0,1,.58-.37c.21-.1.46-.22.51-.33s0-.15,0-.2-.16-.13-.68-.13h-.39l0-.17a3.55,3.55,0,0,1-.06-.8c0-.61,0-.91-.39-1a1.33,1.33,0,0,0-.28,0,3.15,3.15,0,0,0-.93.19l-.45.13v0a.82.82,0,0,1,.39.14c.25.22.22.58.2.94a3.38,3.38,0,0,0,0,.45c0,.24.15.32.47.32a2.77,2.77,0,0,0,.58-.06l.62-.1-.34.42-.59.74-.18.21-.23-.18a.58.58,0,0,0-.42-.14,3.24,3.24,0,0,0-1,.24l-.48.15v.07a.78.78,0,0,1,.42.15c.23.2.2.51.18.85,0,.1,0,.21,0,.31v1c0,.22,0,.44,0,.65,0,.74,0,1.45.31,1.75a1.05,1.05,0,0,0,.67.18h0a1.53,1.53,0,0,0,1.19-.57l-.07,0a.6.6,0,0,1-.32.1h-.13l-.21,0v-.17c0-.35,0-.78,0-1.24a10.15,10.15,0,0,1,0-1.46,1.16,1.16,0,0,1,.14-.52,1.22,1.22,0,0,1,.93-.48.59.59,0,0,1,.63.48,4.69,4.69,0,0,1,0,1.07c0,.19,0,.39,0,.58s0,.38,0,.57a6.13,6.13,0,0,0,0,1.06c0,.29.23.41.48.56a.87.87,0,0,1,.18.11h.15a2.32,2.32,0,0,0,1.23-.38l.6-.34-.19.57A.47.47,0,0,0,110.42,63.76Z"/><path class="cls-1" d="M116.57,59.63a2.52,2.52,0,0,0,1.18-.25v0a.59.59,0,0,1-.23,0l-.07,0,0,0a2.23,2.23,0,0,1-.28-.43,1,1,0,0,0-.29-.39,1.05,1.05,0,0,0-.59-.15,3.2,3.2,0,0,0-1.25.32l-.32.17-.08-.3a3.08,3.08,0,0,1,0-1c0-.41.09-1-.11-1.07a1.19,1.19,0,0,0-.27,0,2,2,0,0,1-.4,0l-.2,0v-.51c0-.29,0-.58-.13-.68a.62.62,0,0,0-.34-.09,3.48,3.48,0,0,0-1,.26,5,5,0,0,1-.55.18v.1a.81.81,0,0,1,.47.13l.06,0,0,.06a1.42,1.42,0,0,1,0,.54c0,.16,0,.34.06.4a.66.66,0,0,0,.24,0h0a1.77,1.77,0,0,1,.45.05l.19,0v2l-.43-.27a2.56,2.56,0,0,0-1.25-.37.9.9,0,0,0-.55.15,1.09,1.09,0,0,0-.24.35,1.1,1.1,0,0,1-.42.55l-.07.06H110a0,0,0,0,1,0,0,2.83,2.83,0,0,0,1,.24,1.07,1.07,0,0,0,.53-.11,3,3,0,0,0,.24-.25c.2-.24.42-.48.71-.48a.71.71,0,0,1,.62.45,1.59,1.59,0,0,1,0,.59c0,.11,0,.22,0,.32V61c0,.18,0,.36,0,.54,0,.7,0,1.36.31,1.65a1,1,0,0,0,.67.18h0a1.39,1.39,0,0,0,1.2-.57,2.21,2.21,0,0,0-.38,0l-.33.07v-3c0-.49,0-1,.61-1.12l.11,0,.11,0a1.72,1.72,0,0,1,.46.42A.84.84,0,0,0,116.57,59.63Z"/><path class="cls-1" d="M123.39,58.09c0,.42.54.6,1,.6a1.74,1.74,0,0,0,.84-.2v0c-.26,0-.32-.18-.33-.24a1.3,1.3,0,0,1,0-.52.78.78,0,0,0,0-.44c-.06-.13-.2-.28-.64-.28a5.7,5.7,0,0,0-1.32.24l-.42.12.08-.35a.81.81,0,0,0-.16-.81,1.46,1.46,0,0,0-1-.29,2.86,2.86,0,0,0-1.43.36l-.27.17-.14-.25a.54.54,0,0,0-.52-.25,4.4,4.4,0,0,0-1.36.35l-.13,0v.11a.78.78,0,0,1,.45.12l.06.05,0,.07a7.52,7.52,0,0,1,.06,1.51,8.28,8.28,0,0,0,0,1.24,1.1,1.1,0,0,0,.36.57,1.29,1.29,0,0,1,.39.63,6.31,6.31,0,0,1,0,1.15,5.63,5.63,0,0,0,0,.92.88.88,0,0,0,.85.71H120a1.48,1.48,0,0,0,1.2-.57.68.68,0,0,0-.34,0l-.35.12,0-.3c0-.26,0-.54,0-.82,0-.69,0-1.39-.3-1.73L120,60l.2-.13a.28.28,0,0,1,.08-.06,1.3,1.3,0,0,1,.92-.32,1.39,1.39,0,0,1,.46.13,1.55,1.55,0,0,0,.29.09,1.6,1.6,0,0,0,1.4-.55l-.08,0a.47.47,0,0,1-.31.1h-.11l-.19,0,0-.27a3.69,3.69,0,0,1,.05-1.25l0-.1.12,0a.47.47,0,0,1,.47,0,.46.46,0,0,1,.09.46Zm-2.23.75V59L121,59a2,2,0,0,0-.62.34,3.18,3.18,0,0,0-.27.17l-.5.28.09-.49a4.85,4.85,0,0,0,0-.9c-.06-.73-.13-1.48.29-1.84a.9.9,0,0,1,.59-.2,1.49,1.49,0,0,1,.4.06l.17,0,0,.13c0,.44,0,.91,0,1.37C121.15,58.28,121.15,58.57,121.16,58.84Z"/><path class="cls-1" d="M160.26,59.8l-.11,0a.52.52,0,0,1-.29.09h0a.55.55,0,0,1-.18,0l-.16,0v-.13a11.16,11.16,0,0,1,0-1.53,11,11,0,0,0,0-1.52c0-.19-.13-.42-.66-.42a3.52,3.52,0,0,0-1.55.43l-.27.17-.13-.26c-.07-.14-.22-.33-.74-.33a5.21,5.21,0,0,0-1.85.47l-.27.11-.1-.23a.58.58,0,0,0-.62-.33,4.2,4.2,0,0,0-1.55.42l-.28.12-.09-.23c-.06-.14-.18-.32-.61-.32a3.7,3.7,0,0,0-1.4.38v.09a.68.68,0,0,1,.38.15c.29.25.26.71.23,1.14,0,.12,0,.24,0,.33s0,.36,0,.53a4.88,4.88,0,0,0,0,.86c.06.44.42.67,1.07.67l.44,0,.49-.07-.2.36a6.73,6.73,0,0,1-.79,1,5.17,5.17,0,0,0-.83,1.07.61.61,0,0,0,.05.71,1.12,1.12,0,0,0,.83.34,1.49,1.49,0,0,0,1.19-.61l-.15,0h0l-.62.16.31-.46a15.18,15.18,0,0,1,1-1.27c.08-.08.14-.18.22-.26s.2-.23.3-.33a2.43,2.43,0,0,0,.75-1.2,7.67,7.67,0,0,0,0-1.27,8.24,8.24,0,0,1,0-1.4V56.9l.14,0a1.86,1.86,0,0,1,.6-.11.67.67,0,0,1,.59.24l0,0v0a8.26,8.26,0,0,1,0,1.42,8.78,8.78,0,0,0,0,1.15c.07.65.85.7,1.09.7a1.55,1.55,0,0,0,1.19-.44l.34-.43.14.5c.07.28.49.37.86.37a2.21,2.21,0,0,0,.65-.1l.1-.08A3.15,3.15,0,0,0,160.26,59.8Zm-7.71-.45a1,1,0,0,1-.79.49h-.27l0-.21c0-.82,0-1.8,0-2.62V56.9l.12,0a.83.83,0,0,1,.39-.11.49.49,0,0,1,.34.12c.25.19.24.58.23,1V58c0,.13,0,.29,0,.44A2.71,2.71,0,0,1,152.55,59.35Zm5.52,0c-.11.3-.6.44-.78.47l-.3.06,0-.25c0-.82,0-1.79,0-2.6V56.9l.12,0a.87.87,0,0,1,.41-.11.53.53,0,0,1,.35.12c.24.19.23.58.23,1V58c0,.12,0,.27,0,.42A2.58,2.58,0,0,1,158.07,59.34Z"/><path class="cls-1" d="M130.51,60.91c0,.22,0,.44,0,.65,0,.4,0,.77,0,1.06,0,.56.55.76,1,.76a1.58,1.58,0,0,0,1-.32l.27-.21.16.27a1.07,1.07,0,0,0,.84.27,1.25,1.25,0,0,0,.75-.19v0a.31.31,0,0,1-.27-.21v-.08a2.66,2.66,0,0,1,.1-.38,1.59,1.59,0,0,0,.1-.71c-.1-.44-.7-.6-1.23-.6a2.89,2.89,0,0,0-.88.14l-.36.12V59.14l.07,0,.06-.07a.74.74,0,0,1,.51-.29l.11,0,.09,0a1,1,0,0,1,.36.37.59.59,0,0,0,.13.18,1.31,1.31,0,0,0,.84.26,2.26,2.26,0,0,0,1-.23v0a.84.84,0,0,1-.7-.6.93.93,0,0,0-.23-.37.81.81,0,0,0-.52-.16,3.4,3.4,0,0,0-1.31.38l-.35.15,0-.31a6.81,6.81,0,0,1,0-1c0-.54.08-1.16-.18-1.38a.55.55,0,0,0-.35-.1,2.41,2.41,0,0,0-.93.24,4.94,4.94,0,0,1-.58.2v.06a.67.67,0,0,1,.54.25l0,0v0a7.15,7.15,0,0,1,0,1c0,.21,0,.43,0,.63v.37l-.48-.21a3.08,3.08,0,0,0-1.27-.37h-.12c-.32,0-.42.18-.58.49a1.51,1.51,0,0,1-.48.58l0,0h0l-.15,0a0,0,0,0,1,0,0,2.26,2.26,0,0,0,1,.24h.17a1.19,1.19,0,0,0,.76-.44,2.85,2.85,0,0,1,.5-.38l.16-.08.15.09.09.06a.7.7,0,0,1,.36.34,3.67,3.67,0,0,1,0,1.09C130.52,60.46,130.51,60.7,130.51,60.91Zm1.52.87a.73.73,0,0,1,.62-.18h.07l.06,0c.34.2.28.81.12,1l0,.07-.08,0a1.22,1.22,0,0,1-.32,0h-.23l-.07-.06a.73.73,0,0,1-.2-.64,1.34,1.34,0,0,0,0-.2v-.08Z"/><path class="cls-1" d="M143,63.28a.21.21,0,0,0,.08-.11.3.3,0,0,1-.21-.2v0c0-.15,0-.3,0-.43.06-.43.09-.77-.15-1a1.56,1.56,0,0,0-1.06-.32,2.26,2.26,0,0,0-.83.14l-.35.12,0-.31c0-.48,0-.95,0-1.41a13.25,13.25,0,0,0,0-1.41,2.13,2.13,0,0,0-.86-1.29,3.64,3.64,0,0,1-.68-.75l-.13-.22.27-.06s0,0,0-.06h-.31a3.46,3.46,0,0,0-1.46.22c-.18.12-.12.28.31.7a1.26,1.26,0,0,1,.38.47l.06.22-.27,0a3.06,3.06,0,0,0-.56.18l-.19.08-.13-.12a1,1,0,0,0-.61-.18,1.68,1.68,0,0,0-1.13.41l.08.07a.53.53,0,0,1,.19,0,.54.54,0,0,1,.22.05l.11.06v2.39c0,.27,0,.54,0,.81a10,10,0,0,0,0,1.46.88.88,0,0,0,.94.66h0a1.52,1.52,0,0,0,1.21-.57l-.08,0a.53.53,0,0,1-.3.1h-.11l-.19,0,0-.16c0-.85,0-1.74,0-2.62,0-.53,0-1.08,0-1.62v-.05l0,0a1.41,1.41,0,0,1,1-.65l.14,0,.1.09c.67.49.64,1.44.6,2.45,0,.22,0,.44,0,.66s0,.51,0,.75a5.57,5.57,0,0,0,0,1.18c.09.42.62.57,1.09.57a1.78,1.78,0,0,0,1-.29l.26-.21.16.28a1.1,1.1,0,0,0,.82.27A.88.88,0,0,0,143,63.28Zm-1.41-1a.66.66,0,0,1-.62.5h0a.93.93,0,0,1-.24,0l-.07,0-.05-.06a.91.91,0,0,1,0-.92.57.57,0,0,1,.71-.14A.55.55,0,0,1,141.62,62.32Z"/><path class="cls-1" d="M147.33,60c0,.14,0,.3,0,.44a5.73,5.73,0,0,0,0,.72.93.93,0,0,0,1,.68,1.44,1.44,0,0,0,.65-.14,1.49,1.49,0,0,0,.52-.42l-.08,0a.6.6,0,0,1-.28.07H149l-.18,0v-.15a6.28,6.28,0,0,1,0-1.37,7.16,7.16,0,0,0,0-1.32s0-.07,0-.11c-.15-.34-.51-.5-1.16-.5A10.77,10.77,0,0,0,146,58a4.14,4.14,0,0,1-.45.07l-.29,0,0-.24c0-.19,0-.41,0-.61,0-.49,0-1.06-.22-1.26a.44.44,0,0,0-.3-.09h0a3,3,0,0,0-1,.24,3.38,3.38,0,0,1-.56.2v0a.66.66,0,0,1,.41.15c.26.22.23.57.2.93s-.05.62.1.72a.92.92,0,0,0,.38.05h.29l.47,0-.28.3a2,2,0,0,1-.27.22,1.34,1.34,0,0,0-.29.23,2.84,2.84,0,0,0-.24,1.68c0,.16,0,.33,0,.49s0,.38,0,.56A2.71,2.71,0,0,0,144,63a.9.9,0,0,0,.81.38,1.85,1.85,0,0,0,1.32-.55l-.1,0a.64.64,0,0,1-.3.08l-.14,0-.22,0,0-.18a8.87,8.87,0,0,0,0-1.62,8.84,8.84,0,0,1,0-1.93,1,1,0,0,1,.71-.66,1.24,1.24,0,0,1,.33,0,.9.9,0,0,1,.8.33,1.69,1.69,0,0,1,.06.89C147.34,59.74,147.33,59.87,147.33,60Z"/><path class="cls-2" d="M109.87,35.38c3.83,0,5.3,2.4,5.3,7.19a20.5,20.5,0,0,1-.1,2.4h-7.14c.1,2.12.91,3.33,2.62,3.33a18.74,18.74,0,0,0,3.18-.53c.75,0,1.06.69,1,2.81a10.26,10.26,0,0,1-5.08,1.09c-4.59,0-6.21-3.52-6.21-8.19S105.47,35.38,109.87,35.38Zm-.16,3.27a2.82,2.82,0,0,0-1.31.4,11.78,11.78,0,0,0-.5,3.37l3.4-.22C111.39,40,110.93,38.65,109.71,38.65Z"/><path class="cls-2" d="M116.45,36h2V34.41c0-1.65,1.06-2.33,4.06-2.15V36h3v3.18h-3V47c0,1,.43,1.37,1.24,1.37a4,4,0,0,0,1.5-.28l.34,2.7a7.63,7.63,0,0,1-3.64.82c-2.47,0-3.72-1.31-3.72-4v-8.5h-1.77Z"/><path class="cls-2" d="M127.42,30.83a7.38,7.38,0,0,1,2.19-.4c1.84,0,2.09.43,2.09,2.3l0,4.3a5.77,5.77,0,0,1,4-1.65c2.62,0,3.74,1.56,3.74,4.3V51.35h-4.24V40.61c0-1-.4-1.59-1.34-1.59a3.16,3.16,0,0,0-2.21.9V51.35h-4.28Z"/><path class="cls-2" d="M145,29.84c1.37,0,1.94.68,1.94,2.08,0,1.25-.78,2.06-2.81,2.06-1.47,0-1.93-.91-1.93-2.12S142.92,29.84,145,29.84Zm-2.62,21.51V36.06a6.2,6.2,0,0,1,2.28-.4c1.65,0,2,.47,2,2.12V51.35Z"/><path class="cls-2" d="M161.63,43.6c0,4.92-2,8.07-6.86,8.07-3.74,0-5.77-3.37-5.77-8.29,0-3.33.82-8,6.8-8C160,35.38,161.63,38.46,161.63,43.6Zm-6.3,4.8a2.43,2.43,0,0,0,1.41-.41,14.27,14.27,0,0,0,.65-4.48c0-3.52-.56-4.8-2-4.8a3.52,3.52,0,0,0-1.47.34,11.41,11.41,0,0,0-.68,4.46C153.25,47.06,154,48.4,155.33,48.4Z"/><path class="cls-2" d="M166.5,36h2V34.41c0-1.65,1.06-2.33,4.05-2.15V36h3v3.18h-3V47c0,1,.44,1.37,1.25,1.37a4,4,0,0,0,1.49-.28l.35,2.7a7.71,7.71,0,0,1-3.65.82c-2.47,0-3.71-1.31-3.71-4v-8.5H166.5Z"/><path class="cls-2" d="M183.18,35.38c3.84,0,5.3,2.4,5.3,7.19a22.77,22.77,0,0,1-.09,2.4h-7.14c.09,2.12.9,3.33,2.62,3.33a18.74,18.74,0,0,0,3.18-.53c.75,0,1.06.69,1,2.81A10.26,10.26,0,0,1,183,51.67c-4.59,0-6.21-3.52-6.21-8.19S178.79,35.38,183.18,35.38ZM183,38.65a2.82,2.82,0,0,0-1.31.4,11.41,11.41,0,0,0-.5,3.37l3.4-.22C184.71,40,184.24,38.65,183,38.65Z"/><path class="cls-2" d="M190.82,30.89a7.32,7.32,0,0,1,2.25-.43c1.68,0,2,.46,2,2.3V47.12c0,.87.43,1.28,1.12,1.28a3.48,3.48,0,0,0,1.18-.22l.22,2.74a6.91,6.91,0,0,1-3.18.75c-2.21,0-3.62-1.19-3.62-3.93Z"/><path class="cls-2" d="M204.86,35.38c3.83,0,5.3,2.4,5.3,7.19a22.77,22.77,0,0,1-.09,2.4h-7.15c.1,2.12.91,3.33,2.62,3.33a18.54,18.54,0,0,0,3.18-.53c.75,0,1.06.69,1,2.81a10.26,10.26,0,0,1-5.08,1.09c-4.58,0-6.21-3.52-6.21-8.19S200.46,35.38,204.86,35.38Zm-.16,3.27a2.92,2.92,0,0,0-1.31.4,11.78,11.78,0,0,0-.5,3.37l3.4-.22C206.39,40,205.92,38.65,204.7,38.65Z"/><path class="cls-2" d="M218.17,35.38a6.67,6.67,0,0,1,3.65.93c0,2.06-.47,3.15-1.28,3.15a15.21,15.21,0,0,0-2.3-.53,2.91,2.91,0,0,0-1.16.25,10.91,10.91,0,0,0-.78,4.39c0,3.21,1.06,4.64,2.72,4.64a5.37,5.37,0,0,0,2.37-.59l.46,2.8a6.45,6.45,0,0,1-4,1.25c-3.8,0-6-2.84-6-8S214,35.38,218.17,35.38Z"/><path class="cls-2" d="M235.58,43.6c0,4.92-2,8.07-6.87,8.07-3.74,0-5.76-3.37-5.76-8.29,0-3.33.81-8,6.79-8C233.92,35.38,235.58,38.46,235.58,43.6Zm-6.3,4.8a2.4,2.4,0,0,0,1.4-.41,14.27,14.27,0,0,0,.65-4.48c0-3.52-.56-4.8-2-4.8a3.52,3.52,0,0,0-1.47.34,11.41,11.41,0,0,0-.68,4.46C227.19,47.06,227.9,48.4,229.28,48.4Z"/><path class="cls-2" d="M238,35.78a6.11,6.11,0,0,1,2.08-.4c1.1,0,1.6.22,2.06,1.77a7,7,0,0,1,4.37-1.77,2.84,2.84,0,0,1,3,1.84A7.52,7.52,0,0,1,254,35.38c3,0,3.37,1.87,3.37,5.11V51.35h-4.21V41c0-1.34-.06-1.93-1.21-1.93a5.06,5.06,0,0,0-2.19.84V51.35h-4.18V41c0-1.34-.06-1.93-1.18-1.93a5,5,0,0,0-2.18.84V51.35H238Z"/><path class="cls-2" d="M260.13,35.8h-.85v-.41h2.25v.41h-.86v2.94h-.54Z"/><path class="cls-2" d="M262.29,35.39h.76l.53,2a6.78,6.78,0,0,1,.23,1.1h0a10.07,10.07,0,0,1,.24-1.1l.52-2h.75l.34,3.35h-.52l-.16-2c-.05-.62-.06-1-.06-1h0s-.08.46-.25,1l-.53,2h-.64l-.53-2c-.17-.6-.25-1-.25-1h0s0,.43-.05,1l-.16,2H262Z"/><path class="cls-3" d="M28.25,57.8l.09.23Z"/><path class="cls-3" d="M27.36,55.3s0,.05,0,.08S27.37,55.32,27.36,55.3Z"/><path class="cls-3" d="M31.07,62.78l.18.26Z"/><path class="cls-3" d="M27.07,54.17c0,.1,0,.2.07.31C27.11,54.37,27.09,54.27,27.07,54.17Z"/><path class="cls-3" d="M29.51,60.36l.12.22Z"/><path class="cls-3" d="M30,61.11c.07.1.12.2.19.3C30.07,61.31,30,61.21,30,61.11Z"/><path class="cls-3" d="M28.5,58.37c.07.18.15.35.23.52C28.65,58.72,28.57,58.55,28.5,58.37Z"/><path class="cls-3" d="M26.86,53.16c0,.14.05.27.07.41C26.91,53.43,26.89,53.3,26.86,53.16Z"/><path class="cls-3" d="M27.53,55.86c0,.14.09.27.13.41C27.62,56.13,27.58,56,27.53,55.86Z"/><path class="cls-3" d="M29,39.22c-.2.39-.38.78-.55,1.17C28.64,40,28.82,39.61,29,39.22Z"/><path class="cls-3" d="M26.71,52.18l.06.47Z"/><path class="cls-3" d="M27.53,42.91a22,22,0,0,0-.75,3.19A22,22,0,0,1,27.53,42.91Z"/><path class="cls-3" d="M29.93,37.56c-.31.52-.61,1-.88,1.6C29.32,38.61,29.62,38.08,29.93,37.56Z"/><path class="cls-3" d="M28.47,40.39c-.24.54-.45,1.08-.64,1.62C28,41.47,28.23,40.93,28.47,40.39Z"/><path class="cls-3" d="M26.61,51.35c0,.13,0,.26,0,.38C26.63,51.61,26.63,51.48,26.61,51.35Z"/><path class="cls-3" d="M26.76,46.23c0,.27-.08.55-.11.82C26.68,46.78,26.72,46.5,26.76,46.23Z"/><path class="cls-3" d="M26.52,49.08c0,.58,0,1.15.05,1.72C26.53,50.23,26.52,49.66,26.52,49.08Z"/><path class="cls-3" d="M31.52,63.38l.34.45Z"/><path class="cls-3" d="M31,35.86h0c.23-.36.48-.73.73-1.08C31.5,35.13,31.25,35.5,31,35.86Z"/><path class="cls-3" d="M32.16,64.19c.12.13.23.27.35.41C32.39,64.46,32.28,64.32,32.16,64.19Z"/><path class="cls-3" d="M35.19,67.35l.23.2Z"/><path class="cls-3" d="M33.9,66.11l-.17-.17Z"/><path class="cls-3" d="M34.25,66.45l.39.39Z"/><path class="cls-3" d="M26.52,48.94c0-.56.05-1.12.11-1.68C26.57,47.82,26.54,48.38,26.52,48.94Z"/><path class="cls-4" d="M64.55,51.5a33,33,0,0,0,7.33,1.57c9.83,1.18,24.3-3.66,25.07-16.73C95.18,44.73,84.37,56,64.55,51.5Z"/><path class="cls-5" d="M39.42,70.23c10.52,5.58,30.27,7.85,43.91-2.12A2.74,2.74,0,0,0,84.47,65a1.86,1.86,0,0,0-.53-.74c-.68-.61-1.87-.86-3.53-.33-15.08,4.75-32.21-1-29.66-12.47a16,16,0,0,1,1-3,22.79,22.79,0,0,0-5.55.47,18.34,18.34,0,0,0-5.09,1.78,14.54,14.54,0,0,0-4.43,3.56,12,12,0,0,0-1,1.51h0l0,0a11.16,11.16,0,0,0-1.41,6.64v0h0a11.45,11.45,0,0,0,2.33,5.91l.22.27a26.52,26.52,0,0,0,2.61,1.59"/><path class="cls-6" d="M91.24,22.93l-.11-.1a48.52,48.52,0,0,0-5.92-2.12C59.38,17.15,40,25.07,31,35.86h0c-.39.56-.75,1.12-1.09,1.7s-.61,1-.88,1.6l0,.06c-.2.39-.38.78-.55,1.17S28,41.47,27.83,42q-.16.45-.3.9a22,22,0,0,0-.75,3.19s0,.09,0,.13c0,.27-.08.55-.11.82,0,.07,0,.14,0,.21-.06.56-.09,1.12-.11,1.68v.14c0,.58,0,1.15.05,1.72,0,.19,0,.37,0,.55s0,.26,0,.38,0,.3.06.45l.06.47.09.51c0,.14.05.27.07.41s.09.4.14.6,0,.2.07.31c.07.27.14.54.22.82,0,0,0,.05,0,.08l.15.48c0,.14.09.27.13.41.18.51.37,1,.59,1.53l.09.23c.05.11.1.23.16.34s.15.35.23.52c.24.5.5,1,.78,1.47l.12.22.32.53c.07.1.12.2.19.3.29.47.61.92.93,1.37l.18.26.27.34.34.45.3.36c.12.13.23.27.35.41.39.46.8.9,1.22,1.34l.17.17c.11.12.23.23.35.34l.39.39.55.51.23.2c.19.17.38.34.58.5l.23.2c.2.15.4.27.58.39l-.22-.27a11.45,11.45,0,0,1-2.33-5.91h0v0a11.16,11.16,0,0,1,1.41-6.64l0,0h0a12,12,0,0,1,1-1.51,14.54,14.54,0,0,1,4.43-3.56,18.34,18.34,0,0,1,5.09-1.78,22.79,22.79,0,0,1,5.55-.47c4.7.17,8.55,1.8,12.75,3.08h0C84.37,56,95.18,44.73,97,36.34h0A15.78,15.78,0,0,0,91.24,22.93Z"/><polygon class="cls-4" points="36.23 68.25 36.23 68.25 36.23 68.25 36.23 68.25"/><path class="cls-7" d="M35.19,67.35l-.55-.51-.39-.39c-.12-.11-.24-.22-.35-.34l-.17-.17c-.42-.44-.83-.88-1.22-1.34-.12-.14-.23-.28-.35-.41l-.3-.36-.34-.45L31.25,63l-.18-.26c-.32-.45-.64-.9-.93-1.37-.07-.1-.12-.2-.19-.3l-.32-.53-.12-.22c-.28-.49-.54-1-.78-1.47-.08-.17-.16-.34-.23-.52s-.11-.23-.16-.34l-.09-.23c-.22-.51-.41-1-.59-1.53,0-.14-.08-.27-.13-.41l-.15-.48s0-.06,0-.08c-.08-.28-.15-.55-.22-.82,0-.11-.05-.21-.07-.31s-.1-.4-.14-.6,0-.27-.07-.41l-.09-.51-.06-.47c0-.15-.05-.3-.06-.45s0-.25,0-.38,0-.36,0-.55c0-.57-.05-1.14-.05-1.72v-.14c0-.56.05-1.12.11-1.68,0-.07,0-.14,0-.21,0-.27.07-.55.11-.82,0,0,0-.09,0-.13a22,22,0,0,1,.75-3.19q.13-.45.3-.9c.19-.54.4-1.08.64-1.62s.35-.78.55-1.17l0-.06c.27-.55.57-1.08.88-1.6s.7-1.14,1.09-1.7h0c.23-.36.48-.73.73-1.08,10.36-14.64,32-20.11,52.75-14.27l.71.2a48.52,48.52,0,0,1,5.92,2.12c-7-6.07-17.36-8.5-29.55-7.67C38.89,16.69,22.3,32,24.52,49.24a26.12,26.12,0,0,0,3.64,10.18A31.71,31.71,0,0,0,34.57,67c.53.43,1.11.9,1.66,1.3h0l-.23-.2c-.2-.16-.39-.33-.58-.5Z"/><line class="cls-8" x1="31.02" y1="35.86" x2="31.02" y2="35.86"/><path class="cls-9" d="M31.75,34.78c-.25.35-.5.72-.73,1.08C40,25.07,59.38,17.15,85.21,20.71l-.71-.2C63.76,14.67,42.11,20.14,31.75,34.78Z"/><polygon class="cls-9" points="31.02 35.86 31.02 35.86 31.02 35.86 31.02 35.86 31.02 35.86 31.02 35.86"/></svg>